<mxfile host="app.diagrams.net" agent="Mozilla/5.0 (Windows NT 10.0; Win64; x64) AppleWebKit/537.36 (KHTML, like Gecko) Chrome/131.0.0.0 Safari/537.36" version="26.0.3">
  <diagram name="Seite-1" id="HcExWx5HO9tAeYDdfuHO">
    <mxGraphModel dx="1195" dy="643" grid="1" gridSize="10" guides="1" tooltips="1" connect="1" arrows="1" fold="1" page="1" pageScale="1" pageWidth="1654" pageHeight="1169" math="0" shadow="0">
      <root>
        <mxCell id="0" />
        <mxCell id="1" parent="0" />
        <mxCell id="wYWAPYZexEv1usOa7uD7-25" value="&amp;nbsp;Arbeitsplan" style="rounded=0;whiteSpace=wrap;html=1;fillColor=#FFD966;strokeColor=#d6b656;align=left;strokeWidth=2;" vertex="1" parent="1">
          <mxGeometry x="400" y="520" width="120" height="30" as="geometry" />
        </mxCell>
        <mxCell id="wYWAPYZexEv1usOa7uD7-26" value="" style="rounded=0;whiteSpace=wrap;html=1;fillColor=#FFD966;strokeColor=#d6b656;strokeWidth=2;" vertex="1" parent="1">
          <mxGeometry x="360" y="550" width="160" height="140" as="geometry" />
        </mxCell>
        <mxCell id="wYWAPYZexEv1usOa7uD7-27" value="PRG" style="rounded=0;whiteSpace=wrap;html=1;fillColor=#FFD966;strokeColor=#d6b656;strokeWidth=2;" vertex="1" parent="1">
          <mxGeometry x="360" y="520" width="40" height="30" as="geometry" />
        </mxCell>
        <mxCell id="wYWAPYZexEv1usOa7uD7-28" value="&amp;nbsp;Sequenz" style="rounded=0;whiteSpace=wrap;html=1;fillColor=#FFE599;strokeColor=#d6b656;align=left;strokeWidth=2;" vertex="1" parent="1">
          <mxGeometry x="420" y="565" width="80" height="30" as="geometry" />
        </mxCell>
        <mxCell id="wYWAPYZexEv1usOa7uD7-29" value="" style="rounded=0;whiteSpace=wrap;html=1;fillColor=#FFE599;strokeColor=#d6b656;strokeWidth=2;" vertex="1" parent="1">
          <mxGeometry x="380" y="595" width="120" height="75" as="geometry" />
        </mxCell>
        <mxCell id="wYWAPYZexEv1usOa7uD7-30" value="FB" style="rounded=0;whiteSpace=wrap;html=1;fillColor=#FFE599;strokeColor=#d6b656;strokeWidth=2;" vertex="1" parent="1">
          <mxGeometry x="380" y="565" width="40" height="30" as="geometry" />
        </mxCell>
        <mxCell id="wYWAPYZexEv1usOa7uD7-31" value="&amp;nbsp;SkillSet" style="rounded=0;whiteSpace=wrap;html=1;fillColor=#FFE599;strokeColor=#d6b656;align=left;strokeWidth=2;" vertex="1" parent="1">
          <mxGeometry x="600" y="520" width="290" height="30" as="geometry" />
        </mxCell>
        <mxCell id="wYWAPYZexEv1usOa7uD7-32" value="" style="rounded=0;whiteSpace=wrap;html=1;fillColor=#FFE599;strokeColor=#d6b656;strokeWidth=2;" vertex="1" parent="1">
          <mxGeometry x="560" y="550" width="330" height="110" as="geometry" />
        </mxCell>
        <mxCell id="wYWAPYZexEv1usOa7uD7-33" value="PRG" style="rounded=0;whiteSpace=wrap;html=1;fillColor=#FFE599;strokeColor=#d6b656;strokeWidth=2;" vertex="1" parent="1">
          <mxGeometry x="560" y="520" width="40" height="30" as="geometry" />
        </mxCell>
        <mxCell id="wYWAPYZexEv1usOa7uD7-34" value="&amp;nbsp;Skill_A" style="rounded=0;whiteSpace=wrap;html=1;fillColor=#FFF2CC;strokeColor=#d6b656;align=left;strokeWidth=2;" vertex="1" parent="1">
          <mxGeometry x="620" y="565" width="80" height="30" as="geometry" />
        </mxCell>
        <mxCell id="wYWAPYZexEv1usOa7uD7-35" value="" style="rounded=0;whiteSpace=wrap;html=1;fillColor=#FFF2CC;strokeColor=#d6b656;strokeWidth=2;" vertex="1" parent="1">
          <mxGeometry x="580" y="595" width="120" height="45" as="geometry" />
        </mxCell>
        <mxCell id="wYWAPYZexEv1usOa7uD7-75" style="edgeStyle=orthogonalEdgeStyle;rounded=0;orthogonalLoop=1;jettySize=auto;html=1;entryX=1;entryY=0.5;entryDx=0;entryDy=0;endArrow=none;endFill=0;strokeWidth=2;" edge="1" parent="1" source="wYWAPYZexEv1usOa7uD7-36" target="wYWAPYZexEv1usOa7uD7-26">
          <mxGeometry relative="1" as="geometry">
            <Array as="points">
              <mxPoint x="540" y="580" />
              <mxPoint x="540" y="620" />
            </Array>
          </mxGeometry>
        </mxCell>
        <mxCell id="wYWAPYZexEv1usOa7uD7-36" value="FB" style="rounded=0;whiteSpace=wrap;html=1;fillColor=#FFF2CC;strokeColor=#d6b656;strokeWidth=2;" vertex="1" parent="1">
          <mxGeometry x="580" y="565" width="40" height="30" as="geometry" />
        </mxCell>
        <mxCell id="wYWAPYZexEv1usOa7uD7-37" value="&amp;nbsp;Skill_B" style="rounded=0;whiteSpace=wrap;html=1;fillColor=#FFF2CC;strokeColor=#d6b656;align=left;strokeWidth=2;" vertex="1" parent="1">
          <mxGeometry x="790" y="565" width="80" height="30" as="geometry" />
        </mxCell>
        <mxCell id="wYWAPYZexEv1usOa7uD7-38" value="" style="rounded=0;whiteSpace=wrap;html=1;fillColor=#FFF2CC;strokeColor=#d6b656;strokeWidth=2;" vertex="1" parent="1">
          <mxGeometry x="750" y="595" width="120" height="45" as="geometry" />
        </mxCell>
        <mxCell id="wYWAPYZexEv1usOa7uD7-72" style="edgeStyle=orthogonalEdgeStyle;rounded=0;orthogonalLoop=1;jettySize=auto;html=1;entryX=1;entryY=0.5;entryDx=0;entryDy=0;endArrow=none;endFill=0;strokeWidth=2;" edge="1" parent="1" source="wYWAPYZexEv1usOa7uD7-39" target="wYWAPYZexEv1usOa7uD7-26">
          <mxGeometry relative="1" as="geometry">
            <Array as="points">
              <mxPoint x="720" y="580" />
              <mxPoint x="720" y="670" />
              <mxPoint x="540" y="670" />
              <mxPoint x="540" y="620" />
            </Array>
          </mxGeometry>
        </mxCell>
        <mxCell id="wYWAPYZexEv1usOa7uD7-39" value="FB" style="rounded=0;whiteSpace=wrap;html=1;fillColor=#FFF2CC;strokeColor=#d6b656;strokeWidth=2;" vertex="1" parent="1">
          <mxGeometry x="750" y="565" width="40" height="30" as="geometry" />
        </mxCell>
        <mxCell id="wYWAPYZexEv1usOa7uD7-49" value="&amp;nbsp;Anlage" style="rounded=0;whiteSpace=wrap;html=1;fillColor=#F19C99;strokeColor=#b85450;align=left;strokeWidth=2;" vertex="1" parent="1">
          <mxGeometry x="600" y="350" width="290" height="30" as="geometry" />
        </mxCell>
        <mxCell id="wYWAPYZexEv1usOa7uD7-50" value="" style="rounded=0;whiteSpace=wrap;html=1;fillColor=#F19C99;strokeColor=#b85450;strokeWidth=2;" vertex="1" parent="1">
          <mxGeometry x="560" y="380" width="330" height="100" as="geometry" />
        </mxCell>
        <mxCell id="wYWAPYZexEv1usOa7uD7-51" value="PRG" style="rounded=0;whiteSpace=wrap;html=1;fillColor=#F19C99;strokeColor=#b85450;strokeWidth=2;" vertex="1" parent="1">
          <mxGeometry x="560" y="350" width="40" height="30" as="geometry" />
        </mxCell>
        <mxCell id="wYWAPYZexEv1usOa7uD7-52" value="&amp;nbsp;Objekt_A" style="rounded=0;whiteSpace=wrap;html=1;fillColor=#F8CECC;strokeColor=#b85450;align=left;strokeWidth=2;" vertex="1" parent="1">
          <mxGeometry x="620" y="400" width="80" height="30" as="geometry" />
        </mxCell>
        <mxCell id="wYWAPYZexEv1usOa7uD7-53" value="" style="rounded=0;whiteSpace=wrap;html=1;fillColor=#F8CECC;strokeColor=#b85450;strokeWidth=2;" vertex="1" parent="1">
          <mxGeometry x="580" y="430" width="120" height="35" as="geometry" />
        </mxCell>
        <mxCell id="wYWAPYZexEv1usOa7uD7-54" value="FB" style="rounded=0;whiteSpace=wrap;html=1;fillColor=#F8CECC;strokeColor=#b85450;strokeWidth=2;" vertex="1" parent="1">
          <mxGeometry x="580" y="400" width="40" height="30" as="geometry" />
        </mxCell>
        <mxCell id="wYWAPYZexEv1usOa7uD7-55" value="&amp;nbsp;Objekt_B" style="rounded=0;whiteSpace=wrap;html=1;fillColor=#F8CECC;strokeColor=#b85450;align=left;strokeWidth=2;" vertex="1" parent="1">
          <mxGeometry x="790" y="400" width="80" height="30" as="geometry" />
        </mxCell>
        <mxCell id="wYWAPYZexEv1usOa7uD7-56" value="" style="rounded=0;whiteSpace=wrap;html=1;fillColor=#F8CECC;strokeColor=#b85450;strokeWidth=2;" vertex="1" parent="1">
          <mxGeometry x="750" y="430" width="120" height="35" as="geometry" />
        </mxCell>
        <mxCell id="wYWAPYZexEv1usOa7uD7-57" value="FB" style="rounded=0;whiteSpace=wrap;html=1;fillColor=#F8CECC;strokeColor=#b85450;strokeWidth=2;" vertex="1" parent="1">
          <mxGeometry x="750" y="400" width="40" height="30" as="geometry" />
        </mxCell>
        <mxCell id="wYWAPYZexEv1usOa7uD7-69" style="edgeStyle=orthogonalEdgeStyle;rounded=0;orthogonalLoop=1;jettySize=auto;html=1;entryX=0.5;entryY=1;entryDx=0;entryDy=0;endArrow=none;endFill=0;strokeWidth=2;strokeColor=#7EA6E0;" edge="1" parent="1" source="wYWAPYZexEv1usOa7uD7-59" target="wYWAPYZexEv1usOa7uD7-38">
          <mxGeometry relative="1" as="geometry">
            <Array as="points">
              <mxPoint x="320" y="620" />
              <mxPoint x="320" y="730" />
              <mxPoint x="810" y="730" />
            </Array>
          </mxGeometry>
        </mxCell>
        <mxCell id="wYWAPYZexEv1usOa7uD7-59" value="Skill_B&amp;nbsp; :I_Skill_B" style="text;html=1;align=left;verticalAlign=middle;whiteSpace=wrap;rounded=0;" vertex="1" parent="1">
          <mxGeometry x="390" y="605" width="110" height="30" as="geometry" />
        </mxCell>
        <mxCell id="wYWAPYZexEv1usOa7uD7-64" style="edgeStyle=orthogonalEdgeStyle;rounded=0;orthogonalLoop=1;jettySize=auto;html=1;entryX=0.5;entryY=1;entryDx=0;entryDy=0;strokeWidth=2;endArrow=none;endFill=0;strokeColor=#7EA6E0;" edge="1" parent="1" source="wYWAPYZexEv1usOa7uD7-61" target="wYWAPYZexEv1usOa7uD7-53">
          <mxGeometry relative="1" as="geometry">
            <Array as="points">
              <mxPoint x="550" y="620" />
              <mxPoint x="550" y="500" />
              <mxPoint x="640" y="500" />
            </Array>
          </mxGeometry>
        </mxCell>
        <mxCell id="wYWAPYZexEv1usOa7uD7-61" value="Objekt&amp;nbsp; :I_Objekt_A" style="text;html=1;align=left;verticalAlign=middle;whiteSpace=wrap;rounded=0;" vertex="1" parent="1">
          <mxGeometry x="590" y="605" width="120" height="30" as="geometry" />
        </mxCell>
        <mxCell id="wYWAPYZexEv1usOa7uD7-65" style="edgeStyle=orthogonalEdgeStyle;rounded=0;orthogonalLoop=1;jettySize=auto;html=1;entryX=0.5;entryY=1;entryDx=0;entryDy=0;strokeWidth=2;endArrow=none;endFill=0;strokeColor=#7EA6E0;" edge="1" parent="1" source="wYWAPYZexEv1usOa7uD7-63" target="wYWAPYZexEv1usOa7uD7-56">
          <mxGeometry relative="1" as="geometry">
            <Array as="points">
              <mxPoint x="730" y="620" />
              <mxPoint x="730" y="500" />
              <mxPoint x="810" y="500" />
            </Array>
          </mxGeometry>
        </mxCell>
        <mxCell id="wYWAPYZexEv1usOa7uD7-63" value="Objekt&amp;nbsp; :I_Objekt_B" style="text;html=1;align=left;verticalAlign=middle;whiteSpace=wrap;rounded=0;" vertex="1" parent="1">
          <mxGeometry x="760" y="605" width="110" height="30" as="geometry" />
        </mxCell>
        <mxCell id="wYWAPYZexEv1usOa7uD7-68" style="edgeStyle=orthogonalEdgeStyle;rounded=0;orthogonalLoop=1;jettySize=auto;html=1;entryX=0.5;entryY=1;entryDx=0;entryDy=0;endArrow=none;endFill=0;strokeWidth=2;strokeColor=#7EA6E0;" edge="1" parent="1" source="wYWAPYZexEv1usOa7uD7-67" target="wYWAPYZexEv1usOa7uD7-35">
          <mxGeometry relative="1" as="geometry">
            <Array as="points">
              <mxPoint x="340" y="645" />
              <mxPoint x="340" y="710" />
              <mxPoint x="640" y="710" />
            </Array>
          </mxGeometry>
        </mxCell>
        <mxCell id="wYWAPYZexEv1usOa7uD7-67" value="Skill_A&amp;nbsp; :I_Skill_A" style="text;html=1;align=left;verticalAlign=middle;whiteSpace=wrap;rounded=0;" vertex="1" parent="1">
          <mxGeometry x="390" y="630" width="110" height="30" as="geometry" />
        </mxCell>
        <mxCell id="wYWAPYZexEv1usOa7uD7-80" value="" style="group" vertex="1" connectable="0" parent="1">
          <mxGeometry x="360" y="740" width="270" height="41" as="geometry" />
        </mxCell>
        <mxCell id="wYWAPYZexEv1usOa7uD7-76" value="" style="endArrow=none;html=1;rounded=0;strokeWidth=2;strokeColor=#7EA6E0;" edge="1" parent="wYWAPYZexEv1usOa7uD7-80">
          <mxGeometry width="50" height="50" relative="1" as="geometry">
            <mxPoint y="11" as="sourcePoint" />
            <mxPoint x="20" y="11" as="targetPoint" />
          </mxGeometry>
        </mxCell>
        <mxCell id="wYWAPYZexEv1usOa7uD7-77" value="" style="endArrow=none;html=1;rounded=0;strokeWidth=2;strokeColor=#000000;" edge="1" parent="wYWAPYZexEv1usOa7uD7-80">
          <mxGeometry width="50" height="50" relative="1" as="geometry">
            <mxPoint y="32.42999999999995" as="sourcePoint" />
            <mxPoint x="20" y="32.42999999999995" as="targetPoint" />
          </mxGeometry>
        </mxCell>
        <mxCell id="wYWAPYZexEv1usOa7uD7-78" value="&lt;font style=&quot;font-size: 10px;&quot;&gt;&lt;i&gt;:&amp;nbsp; Zugriff über Zuweisung bei Funktionsbaustein&lt;/i&gt;&lt;/font&gt;" style="text;html=1;align=left;verticalAlign=middle;whiteSpace=wrap;rounded=0;" vertex="1" parent="wYWAPYZexEv1usOa7uD7-80">
          <mxGeometry x="20" width="250" height="20" as="geometry" />
        </mxCell>
        <mxCell id="wYWAPYZexEv1usOa7uD7-79" value="&lt;font style=&quot;font-size: 10px;&quot;&gt;&lt;i&gt;:&amp;nbsp; Direktzugriff über Programm (SkillSet)&lt;/i&gt;&lt;/font&gt;" style="text;html=1;align=left;verticalAlign=middle;whiteSpace=wrap;rounded=0;" vertex="1" parent="wYWAPYZexEv1usOa7uD7-80">
          <mxGeometry x="20" y="21" width="250" height="20" as="geometry" />
        </mxCell>
      </root>
    </mxGraphModel>
  </diagram>
</mxfile>
